<?xml version="1.0" encoding="utf-8"?>
<svg xmlns="http://www.w3.org/2000/svg" style="margin: auto; background: none; display: block; shape-rendering: auto;" width="286" height="71" preserveAspectRatio="xMidYMid">
<style type="text/css">
  text {
    text-anchor: middle; font-size: 50px; opacity: 0;
  }
</style>
<g style="transform-origin: 143px 35.5px; transform: scale(0.625);">
<g transform="translate(143,35.5)">
  <g transform="translate(0,0)"><g class="path" style="transform: scale(0.91); transform-origin: -167.65px -0.958902px; animation: 1.66667s linear -0.99s infinite normal forwards running breath-7ed2f1ae-54db-48be-874f-25d076f68f37;"><path d="M44.34-14.41L44.34-14.41L44.34-14.41Q44.34-11.45 43.48-9.14L43.48-9.14L43.48-9.14Q42.62-6.84 41.13-5.14L41.13-5.14L41.13-5.14Q39.65-3.44 37.62-2.29L37.62-2.29L37.62-2.29Q35.59-1.13 33.26-0.43L33.26-0.43L33.26-0.43Q30.94 0.27 28.40 0.59L28.40 0.59L28.40 0.59Q25.86 0.90 23.36 0.90L23.36 0.90L23.36 0.90Q20 0.90 17.42 0.47L17.42 0.47L17.42 0.47Q14.84 0.04 12.50-0.92L12.50-0.92L12.50-0.92Q10.16-1.88 7.83-3.40L7.83-3.40L7.83-3.40Q5.51-4.92 2.66-7.11L2.66-7.11L10.35-13.40L10.35-13.40Q11.41-11.41 13.14-9.79L13.14-9.79L13.14-9.79Q14.88-8.16 16.76-6.99L16.76-6.99L16.76-6.99Q18.63-5.82 20.39-5.20L20.39-5.20L20.39-5.20Q22.15-4.57 23.24-4.57L23.24-4.57L23.24-4.57Q24.14-4.57 25.27-4.63L25.27-4.63L25.27-4.63Q26.41-4.69 27.58-4.86L27.58-4.86L27.58-4.86Q28.75-5.04 29.88-5.39L29.88-5.39L29.88-5.39Q31.02-5.74 31.89-6.35L31.89-6.35L31.89-6.35Q32.77-6.95 33.30-7.87L33.30-7.87L33.30-7.87Q33.83-8.79 33.83-10.08L33.83-10.08L33.83-10.08Q33.83-11.41 33.14-12.40L33.14-12.40L33.14-12.40Q32.46-13.40 31.37-14.14L31.37-14.14L31.37-14.14Q30.27-14.88 28.87-15.39L28.87-15.39L28.87-15.39Q27.46-15.90 26.04-16.29L26.04-16.29L26.04-16.29Q24.61-16.68 23.28-16.97L23.28-16.97L23.28-16.97Q21.95-17.27 20.98-17.54L20.98-17.54L20.98-17.54Q19.18-18.05 17.19-18.57L17.19-18.57L17.19-18.57Q15.20-19.10 13.24-19.79L13.24-19.79L13.24-19.79Q11.29-20.47 9.51-21.41L9.51-21.41L9.51-21.41Q7.73-22.34 6.39-23.65L6.39-23.65L6.39-23.65Q5.04-24.96 4.24-26.74L4.24-26.74L4.24-26.74Q3.44-28.52 3.44-30.90L3.44-30.90L3.44-30.90Q3.44-35.27 5.18-38.22L5.18-38.22L5.18-38.22Q6.91-41.17 9.77-42.95L9.77-42.95L9.77-42.95Q12.62-44.73 16.25-45.47L16.25-45.47L16.25-45.47Q19.88-46.21 23.63-46.21L23.63-46.21L23.63-46.21Q26.21-46.21 29.06-45.68L29.06-45.68L29.06-45.68Q31.91-45.16 34.61-44.12L34.61-44.12L34.61-44.12Q37.30-43.09 39.65-41.60L39.65-41.60L39.65-41.60Q41.99-40.12 43.55-38.20L43.55-38.20L35.86-31.88L35.86-31.88Q35-34.22 33.61-35.90L33.61-35.90L33.61-35.90Q32.23-37.58 30.61-38.65L30.61-38.65L30.61-38.65Q28.98-39.73 27.29-40.23L27.29-40.23L27.29-40.23Q25.59-40.74 24.14-40.74L24.14-40.74L24.14-40.74Q22.73-40.74 20.98-40.63L20.98-40.63L20.98-40.63Q19.22-40.51 17.68-39.96L17.68-39.96L17.68-39.96Q16.13-39.41 15.06-38.30L15.06-38.30L15.06-38.30Q13.98-37.19 13.98-35.23L13.98-35.23L13.98-35.23Q13.98-33.83 14.63-32.83L14.63-32.83L14.63-32.83Q15.27-31.84 16.33-31.11L16.33-31.11L16.33-31.11Q17.38-30.39 18.73-29.90L18.73-29.90L18.73-29.90Q20.08-29.41 21.48-29.04L21.48-29.04L21.48-29.04Q22.89-28.67 24.22-28.40L24.22-28.40L24.22-28.40Q25.55-28.13 26.60-27.81L26.60-27.81L26.60-27.81Q28.40-27.30 30.41-26.78L30.41-26.78L30.41-26.78Q32.42-26.25 34.38-25.57L34.38-25.57L34.38-25.57Q36.33-24.88 38.14-23.96L38.14-23.96L38.14-23.96Q39.96-23.05 41.33-21.72L41.33-21.72L41.33-21.72Q42.70-20.39 43.52-18.61L43.52-18.61L43.52-18.61Q44.34-16.84 44.34-14.41" fill="#1d3f72" stroke="none" stroke-width="none" transform="translate(-191.14999389648438,21.696096984863274)" style="fill: rgb(29, 63, 114);"></path></g><g class="path" style="transform: scale(0.91); transform-origin: -116.345px -9.1639px; animation: 1.66667s linear -0.88s infinite normal forwards running breath-7ed2f1ae-54db-48be-874f-25d076f68f37;"><path d="M65.86-15.16L65.86 0L52.66 0L52.66-61.72L65.86-61.72L65.86-21.21L65.86-21.21Q69.10-23.55 72.25-26.37L72.25-26.37L72.25-26.37Q75.39-29.18 78.24-32.29L78.24-32.29L78.24-32.29Q81.09-35.39 83.54-38.63L83.54-38.63L83.54-38.63Q85.98-41.88 87.81-45.12L87.81-45.12L96.80-45.12L96.80-45.12Q94.06-40.51 90.31-35.92L90.31-35.92L90.31-35.92Q86.56-31.33 82.15-27.15L82.15-27.15L96.95 0L82.38 0L71.88-18.83L71.88-18.83Q68.95-16.84 65.86-15.16L65.86-15.16" fill="#1d3f72" stroke="none" stroke-width="none" transform="translate(-191.14999389648438,21.696096984863274)" style="fill: rgb(86, 153, 210);"></path></g><g class="path" style="transform: scale(0.91); transform-origin: -68.805px -0.958902px; animation: 1.66667s linear -0.77s infinite normal forwards running breath-7ed2f1ae-54db-48be-874f-25d076f68f37;"><path d="M112.81-21.41L112.81-21.41L112.81-21.41Q115.23-20.86 117.66-20.55L117.66-20.55L117.66-20.55Q120.08-20.23 122.54-20.23L122.54-20.23L122.54-20.23Q125.12-20.23 127.32-20.72L127.32-20.72L127.32-20.72Q129.53-21.21 131.15-22.36L131.15-22.36L131.15-22.36Q132.77-23.52 133.71-25.43L133.71-25.43L133.71-25.43Q134.65-27.34 134.65-30.20L134.65-30.20L134.65-30.20Q134.65-32.50 134.02-34.41L134.02-34.41L134.02-34.41Q133.40-36.33 132.17-37.70L132.17-37.70L132.17-37.70Q130.94-39.06 129.14-39.82L129.14-39.82L129.14-39.82Q127.34-40.59 124.96-40.59L124.96-40.59L124.96-40.59Q122.73-40.59 120.96-39.77L120.96-39.77L120.96-39.77Q119.18-38.95 117.83-37.56L117.83-37.56L117.83-37.56Q116.48-36.17 115.53-34.34L115.53-34.34L115.53-34.34Q114.57-32.50 113.95-30.51L113.95-30.51L113.95-30.51Q113.32-28.52 113.05-26.48L113.05-26.48L113.05-26.48Q112.77-24.45 112.77-22.66L112.77-22.66L112.77-22.66Q112.77-22.34 112.77-22.03L112.77-22.03L112.77-22.03Q112.77-21.72 112.81-21.41zM145.35-30.31L145.35-30.31L145.35-30.31Q145.35-27.54 144.45-25.37L144.45-25.37L144.45-25.37Q143.55-23.20 142.01-21.56L142.01-21.56L142.01-21.56Q140.47-19.92 138.44-18.79L138.44-18.79L138.44-18.79Q136.41-17.66 134.10-16.93L134.10-16.93L134.10-16.93Q131.80-16.21 129.36-15.90L129.36-15.90L129.36-15.90Q126.91-15.59 124.61-15.59L124.61-15.59L124.61-15.59Q121.68-15.59 118.83-16.00L118.83-16.00L118.83-16.00Q115.98-16.41 113.20-17.30L113.20-17.30L113.20-17.30Q113.63-14.73 114.57-12.40L114.57-12.40L114.57-12.40Q115.51-10.08 117.07-8.34L117.07-8.34L117.07-8.34Q118.63-6.60 120.92-5.59L120.92-5.59L120.92-5.59Q123.20-4.57 126.33-4.57L126.33-4.57L126.33-4.57Q128.40-4.57 130.27-5.20L130.27-5.20L130.27-5.20Q132.15-5.82 133.71-6.95L133.71-6.95L133.71-6.95Q135.27-8.09 136.46-9.65L136.46-9.65L136.46-9.65Q137.66-11.21 138.40-13.13L138.40-13.13L144.10-11.02L144.10-11.02Q142.81-7.93 140.57-5.68L140.57-5.68L140.57-5.68Q138.32-3.44 135.49-1.97L135.49-1.97L135.49-1.97Q132.66-0.51 129.47 0.20L129.47 0.20L129.47 0.20Q126.29 0.90 123.16 0.90L123.16 0.90L123.16 0.90Q118.01 0.90 113.63-0.84L113.63-0.84L113.63-0.84Q109.26-2.58 106.09-5.70L106.09-5.70L106.09-5.70Q102.93-8.83 101.13-13.16L101.13-13.16L101.13-13.16Q99.34-17.50 99.34-22.66L99.34-22.66L99.34-22.66Q99.34-27.81 101.13-32.15L101.13-32.15L101.13-32.15Q102.93-36.48 106.09-39.61L106.09-39.61L106.09-39.61Q109.26-42.73 113.63-44.47L113.63-44.47L113.63-44.47Q118.01-46.21 123.16-46.21L123.16-46.21L123.16-46.21Q125.66-46.21 128.28-45.86L128.28-45.86L128.28-45.86Q130.90-45.51 133.36-44.75L133.36-44.75L133.36-44.75Q135.82-43.98 138.01-42.77L138.01-42.77L138.01-42.77Q140.20-41.56 141.82-39.79L141.82-39.79L141.82-39.79Q143.44-38.01 144.39-35.66L144.39-35.66L144.39-35.66Q145.35-33.32 145.35-30.31" fill="#1d3f72" stroke="none" stroke-width="none" transform="translate(-191.14999389648438,21.696096984863274)" style="fill: rgb(216, 235, 249);"></path></g><g class="path" style="transform: scale(0.91); transform-origin: -24.45px -9.1639px; animation: 1.66667s linear -0.66s infinite normal forwards running breath-7ed2f1ae-54db-48be-874f-25d076f68f37;"><path d="M170.59-39.88L170.59 0L157.34 0L157.34-39.88L149.14-39.88L149.14-45.12L157.34-45.12L157.34-61.72L170.59-61.72L170.59-45.12L184.26-45.12L184.26-39.88L170.59-39.88" fill="#1d3f72" stroke="none" stroke-width="none" transform="translate(-191.14999389648438,21.696096984863274)" style="fill: rgb(113, 194, 204);"></path></g><g class="path" style="transform: scale(0.91); transform-origin: 16.76px -0.958902px; animation: 1.66667s linear -0.55s infinite normal forwards running breath-7ed2f1ae-54db-48be-874f-25d076f68f37;"><path d="M230.04-33.95L230.04-33.95L224.34-31.68L224.34-31.68Q222.97-35.98 219.77-38.28L219.77-38.28L219.77-38.28Q216.56-40.59 212.07-40.59L212.07-40.59L212.07-40.59Q209.65-40.59 207.75-39.82L207.75-39.82L207.75-39.82Q205.86-39.06 204.43-37.73L204.43-37.73L204.43-37.73Q203.01-36.41 202.01-34.65L202.01-34.65L202.01-34.65Q201.02-32.89 200.39-30.90L200.39-30.90L200.39-30.90Q199.77-28.91 199.49-26.78L199.49-26.78L199.49-26.78Q199.22-24.65 199.22-22.66L199.22-22.66L199.22-22.66Q199.22-20.51 199.45-18.32L199.45-18.32L199.45-18.32Q199.69-16.13 200.25-14.12L200.25-14.12L200.25-14.12Q200.82-12.11 201.76-10.37L201.76-10.37L201.76-10.37Q202.70-8.63 204.12-7.34L204.12-7.34L204.12-7.34Q205.55-6.05 207.52-5.31L207.52-5.31L207.52-5.31Q209.49-4.57 212.07-4.57L212.07-4.57L212.07-4.57Q214.14-4.57 216.02-5.20L216.02-5.20L216.02-5.20Q217.89-5.82 219.45-6.95L219.45-6.95L219.45-6.95Q221.02-8.09 222.23-9.65L222.23-9.65L222.23-9.65Q223.44-11.21 224.14-13.13L224.14-13.13L229.88-11.02L229.88-11.02Q228.59-7.93 226.46-5.68L226.46-5.68L226.46-5.68Q224.34-3.44 221.64-1.97L221.64-1.97L221.64-1.97Q218.95-0.51 215.86 0.20L215.86 0.20L215.86 0.20Q212.77 0.90 209.61 0.90L209.61 0.90L209.61 0.90Q204.49 0.90 200.12-0.84L200.12-0.84L200.12-0.84Q195.74-2.58 192.56-5.72L192.56-5.72L192.56-5.72Q189.38-8.87 187.58-13.18L187.58-13.18L187.58-13.18Q185.78-17.50 185.78-22.66L185.78-22.66L185.78-22.66Q185.78-27.85 187.56-32.19L187.56-32.19L187.56-32.19Q189.34-36.52 192.50-39.65L192.50-39.65L192.50-39.65Q195.66-42.77 200.04-44.49L200.04-44.49L200.04-44.49Q204.41-46.21 209.61-46.21L209.61-46.21L209.61-46.21Q212.89-46.21 216.02-45.49L216.02-45.49L216.02-45.49Q219.14-44.77 221.82-43.26L221.82-43.26L221.82-43.26Q224.49-41.76 226.62-39.45L226.62-39.45L226.62-39.45Q228.75-37.15 230.04-33.95" fill="#1d3f72" stroke="none" stroke-width="none" transform="translate(-191.14999389648438,21.696096984863274)" style="fill: rgb(73, 150, 162);"></path></g><g class="path" style="transform: scale(0.91); transform-origin: 69.765px -4.3589px; animation: 1.66667s linear -0.44s infinite normal forwards running breath-7ed2f1ae-54db-48be-874f-25d076f68f37;"><path d="M283.98-25.86L283.98-25.86L283.98-25.86Q283.98-21.29 282.87-16.33L282.87-16.33L282.87-16.33Q281.76-11.37 279.77-6.60L279.77-6.60L279.77-6.60Q277.77-1.84 275 2.36L275 2.36L275 2.36Q272.23 6.56 268.91 9.61L268.91 9.61L263.95 6.91L263.95 6.91Q265 4.96 265.94 2.54L265.94 2.54L265.94 2.54Q266.88 0.12 267.64-2.60L267.64-2.60L267.64-2.60Q268.40-5.31 269.00-8.20L269.00-8.20L269.00-8.20Q269.61-11.09 270.02-13.93L270.02-13.93L270.02-13.93Q270.43-16.76 270.64-19.43L270.64-19.43L270.64-19.43Q270.86-22.11 270.86-24.41L270.86-24.41L270.86-24.41Q270.86-25.94 270.74-27.68L270.74-27.68L270.74-27.68Q270.63-29.41 270.25-31.15L270.25-31.15L270.25-31.15Q269.88-32.89 269.26-34.49L269.26-34.49L269.26-34.49Q268.63-36.09 267.60-37.30L267.60-37.30L267.60-37.30Q266.56-38.52 265.10-39.26L265.10-39.26L265.10-39.26Q263.63-40 261.64-40L261.64-40L261.64-40Q259.69-40 258.16-39.12L258.16-39.12L258.16-39.12Q256.64-38.24 255.47-36.82L255.47-36.82L255.47-36.82Q254.30-35.39 253.46-33.55L253.46-33.55L253.46-33.55Q252.62-31.72 252.09-29.79L252.09-29.79L252.09-29.79Q251.56-27.85 251.33-25.98L251.33-25.98L251.33-25.98Q251.09-24.10 251.09-22.62L251.09-22.62L251.09 0L237.85 0L237.85-61.72L251.05-61.72L251.05-38.48L251.05-38.48Q253.59-42.19 257.29-44.20L257.29-44.20L257.29-44.20Q260.98-46.21 265.47-46.21L265.47-46.21L265.47-46.21Q270.16-46.21 273.63-44.69L273.63-44.69L273.63-44.69Q277.11-43.16 279.41-40.45L279.41-40.45L279.41-40.45Q281.72-37.73 282.85-34.00L282.85-34.00L282.85-34.00Q283.98-30.27 283.98-25.86" fill="#1d3f72" stroke="none" stroke-width="none" transform="translate(-191.14999389648438,21.696096984863274)" style="fill: rgb(120, 84, 113);"></path></g><g class="path" style="transform: scale(0.91); transform-origin: 114.675px -6.4689px; animation: 1.66667s linear -0.33s infinite normal forwards running breath-7ed2f1ae-54db-48be-874f-25d076f68f37;"><path d="M318.95-31.76L318.95-24.57L292.70-24.57L292.70-31.76L318.95-31.76" fill="#1d3f72" stroke="none" stroke-width="none" transform="translate(-191.14999389648438,21.696096984863274)" style="fill: rgb(232, 205, 197);"></path></g><g class="path" style="transform: scale(0.91); transform-origin: 145.47px -34.2989px; animation: 1.66667s linear -0.22s infinite normal forwards running breath-7ed2f1ae-54db-48be-874f-25d076f68f37;"><path d="M343.83-56.02L343.83-56.02L343.83-56.02Q343.83-54.53 343.26-53.20L343.26-53.20L343.26-53.20Q342.70-51.88 341.72-50.90L341.72-50.90L341.72-50.90Q340.74-49.92 339.41-49.36L339.41-49.36L339.41-49.36Q338.09-48.79 336.60-48.79L336.60-48.79L336.60-48.79Q335.12-48.79 333.81-49.36L333.81-49.36L333.81-49.36Q332.50-49.92 331.52-50.90L331.52-50.90L331.52-50.90Q330.55-51.88 329.98-53.20L329.98-53.20L329.98-53.20Q329.41-54.53 329.41-56.02L329.41-56.02L329.41-56.02Q329.41-57.50 329.98-58.81L329.98-58.81L329.98-58.81Q330.55-60.12 331.52-61.09L331.52-61.09L331.52-61.09Q332.50-62.07 333.81-62.64L333.81-62.64L333.81-62.64Q335.12-63.20 336.60-63.20L336.60-63.20L336.60-63.20Q338.09-63.20 339.41-62.64L339.41-62.64L339.41-62.64Q340.74-62.07 341.72-61.09L341.72-61.09L341.72-61.09Q342.70-60.12 343.26-58.81L343.26-58.81L343.26-58.81Q343.83-57.50 343.83-56.02" fill="#1d3f72" stroke="none" stroke-width="none" transform="translate(-191.14999389648438,21.696096984863274)" style="fill: rgb(238, 231, 216);"></path></g><g class="path" style="transform: scale(0.91); transform-origin: 145.47px -0.843904px; animation: 1.66667s linear -0.11s infinite normal forwards running breath-7ed2f1ae-54db-48be-874f-25d076f68f37;"><path d="M343.24-45.08L343.24 0L330 0L330-45.08L343.24-45.08" fill="#1d3f72" stroke="none" stroke-width="none" transform="translate(-191.14999389648438,21.696096984863274)" style="fill: rgb(29, 63, 114);"></path></g><g class="path" style="transform: scale(0.91); transform-origin: 176.25px -9.1639px; animation: 1.66667s linear 0s infinite normal forwards running breath-7ed2f1ae-54db-48be-874f-25d076f68f37;"><path d="M371.29-39.88L371.29 0L358.05 0L358.05-39.88L349.84-39.88L349.84-45.12L358.05-45.12L358.05-61.72L371.29-61.72L371.29-45.12L384.96-45.12L384.96-39.88L371.29-39.88" fill="#1d3f72" stroke="none" stroke-width="none" transform="translate(-191.14999389648438,21.696096984863274)" style="fill: rgb(86, 153, 210);"></path></g></g>
</g>
</g>
<style id="breath-7ed2f1ae-54db-48be-874f-25d076f68f37" data-anikit="">@keyframes breath-7ed2f1ae-54db-48be-874f-25d076f68f37
{
  0% {
    animation-timing-function: cubic-bezier(0.9647,0.2413,-0.0705,0.7911);
    transform: scale(0.9099999999999999);
  }
  51% {
    animation-timing-function: cubic-bezier(0.9226,0.2631,-0.0308,0.7628);
    transform: scale(1.02994);
  }
  100% {
    transform: scale(0.9099999999999999);
  }
}</style></svg>